<svg width="19" height="19" viewBox="0 0 19 19" fill="none" xmlns="http://www.w3.org/2000/svg">
<path d="M16.982 7.87254C16.9377 7.73829 16.8222 7.63854 16.6812 7.61754H16.679L12.2097 6.96429L10.2237 2.94129C10.1825 2.70729 10.0362 2.51454 9.83598 2.41104L9.83223 2.40879C9.73548 2.36004 9.62148 2.33154 9.50073 2.33154C9.20748 2.33154 8.95398 2.49954 8.83023 2.74479L8.82798 2.74929L6.91623 6.62154L2.64198 7.24629C2.27673 7.30104 2.00073 7.61229 2.00073 7.98879C2.00073 8.19954 2.08773 8.38929 2.22723 8.52579L5.32023 11.5385L4.59048 15.7933C4.58373 15.8315 4.57998 15.875 4.57998 15.92C4.57998 16.334 4.91598 16.67 5.32998 16.67C5.45748 16.67 5.57823 16.6378 5.68323 16.5815L5.67948 16.5838L9.85098 14.39C9.92448 14.348 9.98673 14.2963 10.0392 14.2363L10.04 14.2355L13.8732 16.2515C13.9235 16.2785 13.9842 16.2943 14.048 16.2943C14.255 16.2943 14.423 16.1263 14.423 15.9193C14.423 15.8968 14.4207 15.875 14.417 15.854V15.8563L13.6535 11.4065L16.8867 8.25654C16.9565 8.18829 17 8.09304 17 7.98804C17 7.94679 16.9932 7.90704 16.9812 7.87029L16.982 7.87329V7.87254ZM12.9882 11.0068C12.9177 11.075 12.8742 11.171 12.8742 11.276C12.8742 11.2978 12.8765 11.3195 12.8795 11.3405V11.3383L13.5477 15.233L10.19 13.4668L9.82323 13.0078L9.49923 4.77429L9.68373 3.55254L11.624 7.47129C11.678 7.58004 11.7815 7.65804 11.9037 7.67604H11.906L15.8187 8.24754L12.9882 11.0068Z" fill="#FFD200"/>
</svg>
