<svg width="18" height="19" viewBox="0 0 18 19" fill="none" xmlns="http://www.w3.org/2000/svg">
<path d="M13.1715 16.6692C13.044 16.6692 12.9233 16.637 12.8183 16.5815L12.822 16.5837L9.00002 14.573L5.17802 16.5837C5.07677 16.6377 4.95677 16.67 4.82852 16.67C4.41452 16.67 4.07852 16.334 4.07852 15.92C4.07852 15.875 4.08227 15.8315 4.08977 15.7887L4.08902 15.7932L4.81877 11.5385L1.72577 8.52573C1.58627 8.38924 1.49927 8.19948 1.49927 7.98873C1.49927 7.61298 1.77602 7.30098 2.13677 7.24698L2.14127 7.24623L6.41552 6.62148L8.32727 2.74923C8.46527 2.51748 8.71502 2.36523 9.00002 2.36523C9.28502 2.36523 9.53402 2.51748 9.67052 2.74548L9.67277 2.74923L11.5845 6.62223L15.8588 7.24698C16.224 7.30173 16.5 7.61298 16.5 7.98948C16.5 8.20023 16.413 8.38998 16.2735 8.52648L13.1805 11.5392L13.9103 15.794C13.917 15.8322 13.9208 15.8765 13.9208 15.9207C13.9208 16.3347 13.5855 16.6692 13.1715 16.6692ZM9.00002 12.9755C9.12752 12.9755 9.24827 13.007 9.35327 13.0632L9.34952 13.061L12.1755 14.5475L11.6363 11.402C11.6295 11.3637 11.6258 11.3195 11.6258 11.2752C11.6258 11.0652 11.712 10.8747 11.8515 10.7382L14.139 8.51073L10.9778 8.04873C10.7288 8.01123 10.5233 7.85673 10.416 7.64298L10.4138 7.63848L9.00002 4.77498L7.58627 7.63848C7.47677 7.85598 7.27127 8.01123 7.02677 8.04798L7.02227 8.04873L3.86102 8.51073L6.14852 10.7382C6.28802 10.8747 6.37502 11.0645 6.37502 11.2752C6.37502 11.3202 6.37127 11.3645 6.36377 11.4065L6.36452 11.402L5.82527 14.5475L8.65127 13.061C8.75252 13.007 8.87252 12.9755 9.00002 12.9755Z" fill="#FFD200"/>
</svg>
