<svg width="18" height="19" viewBox="0 0 18 19" fill="none" xmlns="http://www.w3.org/2000/svg">
<path d="M16.4633 7.75627C16.374 7.48702 16.1438 7.28827 15.8625 7.24627L15.8588 7.24552L11.5845 6.62077L9.67275 2.74777C9.53475 2.51602 9.285 2.36377 9 2.36377C8.715 2.36377 8.466 2.51602 8.3295 2.74402L8.32725 2.74777L6.4155 6.62077L2.14125 7.24552C1.776 7.30027 1.5 7.61152 1.5 7.98802C1.5 8.19877 1.587 8.38852 1.7265 8.52502L4.8195 11.5378L4.08975 15.7925C4.083 15.8308 4.07925 15.8743 4.07925 15.9193C4.07925 16.3333 4.41525 16.6693 4.82925 16.6693C4.95675 16.6693 5.0775 16.637 5.1825 16.5808L5.17875 16.583L9.00075 14.5723L12.8228 16.583C12.924 16.637 13.044 16.6693 13.1723 16.6693C13.5863 16.6693 13.9223 16.3333 13.9223 15.9193C13.9223 15.8743 13.9185 15.8308 13.911 15.788L13.9118 15.7925L13.182 11.5378L16.275 8.52502C16.4145 8.38852 16.5015 8.19877 16.5015 7.98802C16.5015 7.90552 16.488 7.82527 16.4633 7.75102L16.4648 7.75627H16.4633Z" fill="#FFD200"/>
</svg>
